<?xml version="1.0" standalone="no"?>
<!DOCTYPE svg PUBLIC "-//W3C//DTD SVG 20010904//EN"
 "http://www.w3.org/TR/2001/REC-SVG-20010904/DTD/svg10.dtd">
<svg version="1.0" xmlns="http://www.w3.org/2000/svg"
 width="300.000000pt" height="285.000000pt" viewBox="0 0 300.000000 285.000000"
 preserveAspectRatio="xMidYMid meet">
<metadata>
Created by potrace 1.10, written by Peter Selinger 2001-2011
</metadata>
<g transform="translate(0.000000,285.000000) scale(0.100000,-0.100000)"
fill="none" stroke="rgba(255,255,255,0.8)" stroke-width="4">
<path d="M1346 2768 c-43 -28 -97 -88 -109 -121 -3 -7 -25 8 -54 36 -49 48
-63 51 -63 14 0 -11 -16 -49 -36 -84 -19 -35 -32 -68 -29 -73 15 -25 -13 -6
-43 27 -18 21 -29 29 -23 17 5 -11 17 -26 25 -33 9 -8 13 -17 10 -23 -9 -14
-29 7 -49 53 -17 36 -20 39 -31 24 -11 -15 -14 -14 -29 9 -10 14 -22 26 -27
26 -6 0 -4 -7 3 -16 8 -9 14 -24 14 -33 0 -9 5 -15 11 -14 10 2 8 -86 -2 -96
-2 -2 -12 14 -22 37 -9 23 -20 42 -25 42 -4 0 -1 -13 8 -30 18 -34 19 -44 4
-35 -6 4 -1 -11 10 -34 12 -22 21 -51 21 -63 -1 -23 -1 -23 -24 4 -13 15 -27
24 -32 20 -4 -4 -4 1 -1 11 5 13 2 17 -11 15 -15 -3 -17 10 -20 120 l-3 124
43 -7 c60 -10 149 -45 143 -55 -3 -5 4 -14 16 -21 15 -8 18 -13 10 -18 -9 -6
-8 -11 2 -20 12 -9 16 -8 21 4 3 9 2 14 -2 11 -5 -3 -9 2 -9 10 0 8 6 13 14
10 7 -3 13 -1 13 4 0 17 -90 62 -163 81 -118 31 -110 39 -106 -110 l4 -129
-25 13 c-33 17 -170 58 -175 53 -3 -2 0 -20 5 -39 6 -18 10 -71 10 -117 l0
-84 -38 7 c-71 12 -292 -52 -292 -85 0 -18 57 -125 74 -139 21 -18 20 -31 -1
-31 -29 0 -137 -55 -176 -90 l-37 -32 40 -29 c22 -16 40 -31 40 -34 0 -2 -14
-12 -31 -20 -32 -17 -109 -91 -109 -106 0 -4 20 -17 44 -27 24 -11 46 -24 49
-29 3 -5 -28 -53 -69 -107 -41 -53 -74 -101 -74 -105 0 -11 71 -76 100 -91 21
-11 21 -11 -10 -46 -16 -19 -30 -39 -30 -43 0 -12 26 -21 58 -20 26 1 26 1 -5
12 l-32 12 24 32 c18 22 31 30 45 26 11 -3 17 -10 13 -16 -4 -6 0 -8 10 -4 10
3 17 2 17 -3 0 -6 -6 -10 -13 -10 -8 0 -14 -6 -15 -12 0 -7 -12 -41 -26 -75
-29 -68 -47 -149 -39 -170 4 -11 17 -13 55 -8 33 5 71 1 118 -10 l69 -17 -26
-37 c-26 -35 -27 -35 -3 -14 14 12 30 22 35 23 6 1 12 4 15 7 3 4 -1 3 -9 -2
-9 -5 -12 -4 -8 2 3 5 16 9 29 7 13 -1 30 -3 38 -3 9 -1 1 -13 -20 -32 -38
-33 -23 -29 26 8 17 13 41 23 52 23 12 0 48 9 79 19 32 11 78 19 102 17 25 -1
62 4 84 11 21 7 43 11 48 7 5 -3 16 0 24 6 9 7 15 8 15 2 0 -5 -7 -13 -16 -16
-8 -3 -13 -10 -10 -14 3 -5 -8 -21 -24 -37 -15 -15 -26 -33 -24 -39 6 -16
-121 -88 -228 -128 -103 -39 -119 -57 -20 -24 85 29 184 79 245 123 33 24 54
33 69 30 12 -4 28 -1 35 5 9 7 13 7 13 0 0 -6 -21 -27 -46 -47 -48 -36 -53
-48 -9 -19 27 18 35 5 10 -16 -8 -7 -13 -16 -10 -20 3 -5 1 -11 -5 -15 -6 -4
-8 -10 -5 -15 7 -12 -13 -23 -26 -14 -8 5 -4 13 12 26 13 11 20 18 14 16 -21
-7 -155 -79 -155 -83 0 -6 40 9 80 30 35 18 41 19 38 3 -4 -17 -25 -32 -87
-64 -28 -14 -51 -27 -51 -29 0 -10 67 21 112 52 52 35 82 37 38 2 -61 -47
-165 -89 -242 -98 -70 -8 -199 -1 -238 13 -8 3 -33 10 -56 15 l-40 11 29 92
c16 51 41 118 55 148 37 78 37 77 18 61 -25 -21 -52 -79 -75 -157 -10 -38 -26
-86 -35 -106 -9 -21 -16 -40 -16 -42 0 -3 30 -15 68 -27 48 -15 102 -23 190
-27 l122 -4 0 -93 c0 -52 2 -99 5 -107 4 -10 25 -12 93 -7 48 3 94 9 103 13
12 5 18 -5 28 -45 15 -56 87 -209 100 -209 4 0 20 14 37 31 23 24 131 101 201
143 8 4 21 -11 39 -45 32 -65 106 -137 185 -184 33 -19 64 -35 68 -35 5 0 11
17 13 38 3 20 22 65 42 99 l36 62 50 -53 c28 -30 79 -68 113 -86 34 -18 81
-46 103 -61 42 -28 54 -28 54 -1 0 8 20 60 45 116 l46 102 69 -34 c52 -26 86
-36 138 -40 l70 -5 12 71 c12 68 10 148 -5 185 -7 18 -4 18 58 12 36 -4 88 -4
116 0 l51 7 -30 36 c-17 20 -30 40 -30 44 0 5 22 8 48 8 41 0 141 22 165 37 4
2 -15 30 -43 61 l-51 57 45 11 c55 14 206 84 206 95 0 5 -19 21 -41 36 l-42
28 29 6 c16 4 54 18 84 33 30 14 63 26 72 26 9 0 19 4 22 9 6 9 -41 80 -85
126 l-29 31 48 36 c26 20 57 47 70 61 l23 24 -45 27 c-25 14 -48 31 -51 36 -4
6 8 27 25 47 31 35 57 81 49 86 -7 4 -133 48 -154 53 -16 5 -17 4 -5 -5 9 -7
10 -11 3 -11 -22 0 -23 17 -2 36 18 16 18 19 4 24 -12 4 6 28 73 98 l89 93
-26 18 c-41 29 -123 68 -158 76 -28 6 -31 9 -23 25 17 31 12 33 -49 27 -32 -4
-61 -4 -64 0 -3 3 6 21 20 40 32 42 63 150 63 220 0 29 -2 53 -5 53 -4 0 -18
-6 -33 -14 -15 -7 -64 -19 -110 -25 -45 -6 -91 -15 -102 -21 -10 -5 -23 -10
-29 -10 -9 0 34 181 58 244 7 16 10 31 7 33 -3 4 -107 -21 -139 -33 -11 -4
-15 10 -20 56 -3 34 -7 64 -10 66 -3 3 -30 -9 -61 -26 l-56 -32 -9 24 c-5 12
-17 47 -27 76 -10 28 -22 52 -27 52 -4 0 -18 -11 -30 -24 -35 -38 -96 -70
-101 -54 -16 45 -26 98 -26 131 0 20 -2 37 -6 37 -3 0 -31 -18 -64 -40 l-58
-40 -21 44 c-12 23 -32 53 -45 65 l-24 23 -15 -28 c-9 -16 -29 -42 -47 -59
-35 -33 -29 -35 -76 29 -7 11 -15 18 -17 15 -1 -2 -15 -23 -30 -46 -15 -24
-31 -43 -35 -43 -4 1 -14 15 -23 33 -62 124 -75 147 -85 147 -6 0 -32 -14 -58
-32z m64 -1 c0 -7 13 -34 30 -60 17 -27 27 -54 24 -64 -5 -14 -4 -15 4 -4 8
11 12 10 20 -6 6 -11 7 -25 2 -32 -6 -11 -9 -10 -13 5 -3 14 -5 13 -6 -7 0
-14 -8 -34 -16 -45 -20 -26 -18 -44 2 -19 16 20 16 20 8 0 -5 -11 -8 -30 -8
-43 1 -13 0 -22 -2 -20 -11 11 -45 118 -45 141 0 15 -4 27 -10 27 -5 0 -10 -5
-10 -11 0 -5 -5 -7 -10 -4 -7 4 -8 24 -4 53 12 83 -6 38 -22 -54 -8 -49 -18
-98 -21 -109 -6 -18 -7 -18 -14 5 -4 14 -8 41 -9 60 -2 32 -3 33 -10 10 l-7
-25 -11 27 c-6 15 -9 36 -5 45 5 15 3 14 -10 -2 -20 -25 -22 -13 -3 23 21 40
114 122 138 122 5 0 8 -6 8 -13z m364 -87 c15 -23 24 -46 20 -52 -4 -7 -3 -8
4 -4 17 10 15 -3 -3 -20 -13 -13 -15 -12 -21 11 -3 14 -10 25 -14 25 -5 0 -11
10 -13 23 -3 13 -5 7 -6 -16 0 -23 3 -36 9 -32 6 3 10 5 10 3 0 -2 14 -50 31
-108 32 -112 51 -298 32 -322 -9 -11 -10 -31 -4 -88 1 -13 2 -13 11 0 7 10 10
-8 10 -61 0 -83 -7 -102 -27 -67 -12 22 -12 22 -13 -9 0 -18 -3 -33 -7 -33 -5
0 -17 -21 -28 -48 l-19 -47 -8 40 c-5 23 -4 51 2 69 5 16 8 31 6 33 -8 8 -28
-69 -23 -88 4 -16 3 -18 -9 -8 -16 13 -11 41 17 107 10 23 16 42 13 42 -3 0
-13 -18 -23 -40 -10 -22 -21 -37 -24 -33 -4 3 -7 -6 -7 -21 0 -15 -4 -25 -9
-22 -17 11 10 80 55 141 25 33 48 71 51 85 3 14 10 30 14 36 5 6 5 30 1 55
l-8 44 -6 -60 c-6 -64 -26 -118 -39 -109 -5 3 -9 15 -9 27 0 18 2 19 10 7 6
-10 8 3 5 40 -3 41 -2 46 3 20 7 -31 9 -27 13 35 10 123 -5 125 -24 3 -10 -61
-25 -137 -33 -166 l-16 -55 -15 32 c-9 17 -20 28 -26 24 -7 -4 -8 7 -4 33 4
21 9 57 12 79 l5 40 -11 -40 c-5 -22 -13 -51 -16 -65 -4 -20 -9 -12 -25 43
l-19 69 21 71 c12 40 31 89 42 110 11 22 17 41 14 44 -2 3 -17 -19 -31 -48
-23 -44 -49 -134 -81 -278 -4 -20 -7 -22 -15 -10 -6 10 -9 4 -9 -20 0 -25 -3
-32 -11 -24 -8 8 -8 22 0 49 6 22 11 62 11 89 0 30 10 74 25 109 13 33 22 62
20 65 -4 4 -35 -60 -48 -99 -2 -8 -8 2 -12 22 -5 29 -3 46 12 70 16 28 17 38
7 67 l-11 34 -7 -35 c-3 -19 -4 -44 0 -54 5 -16 4 -17 -6 -4 -9 12 -10 10 -5
-10 5 -21 4 -22 -5 -7 -10 16 5 101 35 192 4 13 1 11 -8 -5 -14 -24 -28 -68
-43 -135 l-6 -30 -10 25 c-12 30 -16 90 -6 84 4 -3 6 8 4 23 -2 22 9 40 46 80
26 28 48 57 48 62 0 42 64 -49 76 -107 4 -18 9 -32 13 -32 3 0 23 15 43 34 27
25 35 39 31 55 -5 19 -7 18 -22 -11 -9 -18 -20 -31 -25 -30 -5 2 -12 -1 -15
-7 -4 -6 -12 3 -18 18 -10 27 -8 32 33 71 24 23 44 46 44 51 0 20 19 7 44 -31z
m-500 -121 c-2 -4 5 -28 16 -54 11 -26 20 -54 19 -63 0 -12 -2 -13 -6 -3 -4 9
-7 10 -13 2 -4 -7 -12 6 -19 30 -7 22 -14 39 -16 37 -2 -2 2 -26 11 -53 19
-63 29 -235 14 -235 -13 0 -23 25 -45 118 -10 40 -20 70 -22 68 -3 -2 5 -42
17 -88 31 -115 34 -142 14 -98 -20 43 -51 184 -60 273 -4 37 -10 67 -14 67
-10 0 -4 -59 16 -159 8 -41 13 -76 10 -78 -7 -7 -24 52 -34 117 l-10 65 3 -70
c3 -43 1 -59 -3 -40 -8 29 -8 29 -14 6 -5 -18 1 -33 24 -62 17 -21 32 -49 33
-63 2 -14 6 -30 10 -37 10 -16 15 -107 8 -143 -4 -21 -7 -25 -14 -15 -6 10 -9
8 -9 -8 0 -13 -4 -23 -10 -23 -5 0 -10 8 -10 18 0 21 -24 114 -40 156 -20 53
-20 20 0 -39 22 -63 21 -99 0 -52 -7 15 -17 27 -21 27 -5 0 -22 26 -38 58 -33
63 -42 64 -12 1 11 -21 15 -36 9 -33 -14 9 -37 65 -59 144 -18 60 -19 62 -14
20 2 -25 7 -54 11 -65 5 -13 4 -16 -5 -11 -9 6 -9 -1 1 -26 8 -18 14 -47 13
-65 0 -17 2 -30 5 -28 3 2 5 -15 6 -38 l1 -40 -19 23 c-23 28 -24 47 -1 29 16
-13 16 -13 0 11 -19 28 -22 44 -6 34 7 -4 7 2 -1 17 -18 35 -23 37 -16 9 3
-14 -5 -2 -18 26 -40 84 -51 162 -36 252 18 108 21 111 56 57 29 -46 144 -155
144 -136 0 5 -4 13 -10 16 -5 3 -10 21 -11 38 -1 30 -1 30 -8 7 -6 -22 -8 -23
-14 -7 -4 10 -8 31 -8 45 -1 27 -1 27 -9 -3 -7 -28 -8 -28 -9 -5 -1 14 18 66
41 117 l43 92 67 -66 c37 -37 65 -70 62 -74z m668 35 c10 -42 15 -81 11 -88
-4 -6 -10 -1 -14 14 l-7 25 -1 -27 c-1 -16 -6 -28 -11 -28 -7 0 -9 15 -5 38
l5 37 -14 -40 c-8 -22 -14 -35 -15 -30 -1 6 -10 -5 -21 -23 -11 -18 -18 -37
-16 -41 6 -10 -11 -37 -19 -29 -4 4 -7 27 -7 53 -1 28 -4 41 -9 33 -11 -16
-10 0 0 27 7 17 9 16 15 -10 8 -29 8 -29 17 -7 4 12 5 30 2 39 -5 12 -3 14 7
8 8 -5 11 -4 6 3 -3 6 -2 23 4 39 9 26 9 27 -5 9 -8 -11 -15 -24 -15 -29 0 -4
-4 -6 -9 -3 -5 4 -7 -4 -4 -16 3 -17 2 -19 -5 -10 -7 11 -11 10 -17 -5 -7 -17
-8 -17 -15 2 -5 11 -9 25 -9 32 -1 10 115 102 129 103 3 0 13 -34 22 -76z
m-558 2 c11 15 14 12 20 -24 3 -23 31 -96 62 -164 46 -99 58 -136 62 -190 3
-47 1 -68 -7 -68 -6 0 -11 -8 -12 -17 0 -11 -3 -13 -6 -5 -2 6 -8 10 -11 8 -4
-2 -5 19 -3 47 l5 52 7 -40 6 -40 2 36 c0 20 -2 52 -6 70 -7 33 -7 33 -14 9
-4 -14 -7 -46 -8 -72 -1 -53 -20 -67 -22 -15 -1 30 -2 30 -8 7 -5 -18 -9 -6
-14 49 -4 40 -12 81 -18 90 -8 12 -9 9 -5 -14 18 -111 18 -128 2 -122 -11 4
-16 1 -16 -10 0 -9 -3 -14 -6 -10 -3 3 -12 61 -19 129 -11 103 -13 113 -14 58
0 -36 3 -90 8 -120 22 -125 22 -126 12 -105 -7 14 -10 15 -11 5 -1 -23 -30 19
-30 44 0 17 -2 18 -10 6 -7 -11 -10 -5 -11 25 -1 39 -1 40 -10 10 -5 -20 -7 5
-4 70 2 75 10 121 31 185 16 47 28 99 28 115 -1 22 0 24 3 7 4 -22 5 -22 17
-6z m779 -202 c2 -40 -12 -62 -22 -33 -2 6 1 9 6 6 6 -4 8 4 5 21 l-5 27 -11
-33 c-6 -18 -15 -30 -20 -25 -5 4 -6 0 -3 -10 4 -10 3 -16 -2 -12 -6 3 -13 0
-18 -7 -4 -7 -17 -20 -27 -28 -18 -14 -18 -13 -11 10 5 14 9 41 10 60 1 19 5
46 9 60 6 17 5 22 -2 15 -5 -5 -17 -35 -27 -65 -20 -63 -50 -126 -64 -134 -5
-4 -13 -1 -17 5 -4 7 -3 9 3 6 10 -7 69 110 60 119 -2 3 -14 -20 -27 -51 -12
-30 -26 -53 -30 -50 -10 6 -22 -24 -14 -36 3 -5 1 -8 -4 -7 -6 2 -29 -24 -52
-57 l-42 -60 59 57 c108 104 231 166 432 218 97 24 94 24 81 0 -6 -10 -26 -85
-45 -165 -34 -141 -86 -272 -105 -260 -5 3 -12 0 -16 -6 -5 -8 -3 -9 6 -4 8 5
11 3 8 -6 -3 -8 -9 -14 -14 -14 -6 0 -30 -16 -54 -35 l-45 -35 25 40 c13 22
44 62 68 89 24 28 50 63 59 80 l16 30 -34 -33 c-18 -19 -34 -40 -35 -48 -3
-18 -25 -45 -32 -38 -3 2 1 11 8 20 7 8 14 36 16 62 3 36 11 54 36 80 17 18
29 35 26 38 -3 3 -11 -1 -18 -10 -18 -22 -43 -19 -35 4 9 28 -9 34 -31 10 -23
-25 -109 -71 -118 -62 -3 3 -14 -1 -25 -11 -10 -9 -22 -16 -27 -14 -5 1 -21
-6 -36 -16 -15 -10 -32 -15 -38 -11 -6 4 -22 -3 -36 -16 -13 -12 -24 -19 -24
-14 0 5 -15 -5 -33 -23 l-33 -32 0 45 c-1 24 2 43 6 40 3 -2 26 17 50 43 24
26 38 41 30 35 -34 -31 -30 -9 5 27 21 22 37 40 34 40 -2 0 -31 -28 -64 -61
-33 -34 -53 -58 -45 -54 9 5 12 4 7 -1 -5 -5 -14 -9 -20 -9 -25 -1 -23 31 5
78 45 76 70 130 59 122 -19 -11 -12 5 29 66 23 32 37 59 33 59 -10 0 -93 -129
-127 -197 -26 -52 -35 -82 -16 -53 5 8 10 11 10 5 0 -5 -4 -16 -9 -24 -7 -11
-10 -10 -15 5 -9 29 9 80 60 168 25 44 47 85 48 92 1 8 5 17 9 20 4 4 7 12 7
18 -1 6 -12 -2 -25 -19 -26 -32 -33 -51 -13 -39 7 4 8 3 4 -5 -4 -6 -11 -9
-16 -6 -4 3 -18 -10 -29 -29 -23 -37 -27 -51 -10 -40 6 3 3 -8 -5 -25 -9 -17
-19 -31 -22 -31 -2 0 0 9 6 19 13 24 13 34 1 26 -16 -9 -9 78 8 105 9 13 14
27 12 30 -2 3 39 28 92 55 53 28 107 60 119 72 l22 23 28 -76 c16 -42 29 -96
31 -120z m-1366 41 c69 -34 119 -78 108 -95 -3 -5 -1 -11 5 -15 5 -3 10 -11
10 -17 0 -6 -10 -3 -22 8 -13 11 -10 4 7 -15 17 -19 23 -30 15 -26 -13 7 -12
5 1 -11 30 -37 70 -114 64 -125 -4 -5 1 -22 11 -36 9 -15 18 -43 20 -62 l3
-35 -27 34 c-37 48 -122 135 -122 125 0 -4 -8 -1 -17 8 -10 8 -22 16 -28 16
-29 3 -44 17 -85 80 -25 38 -46 68 -48 66 -5 -5 28 -67 46 -88 24 -28 5 -33
-25 -6 -14 13 -23 18 -19 12 4 -7 2 -13 -3 -13 -6 0 -17 15 -25 33 -8 17 -15
26 -15 19 -1 -7 4 -22 9 -33 7 -12 7 -19 1 -19 -20 0 -25 27 -27 141 l-1 116
46 -13 c25 -8 78 -30 118 -49z m1487 10 c8 -49 1 -69 -20 -61 -7 3 -16 1 -19
-4 -4 -6 -11 -10 -16 -10 -5 0 -1 12 8 27 l18 27 -25 -17 c-14 -10 -25 -22
-25 -27 0 -6 -4 -9 -10 -7 -13 3 -14 48 -2 65 7 9 5 11 -9 6 -31 -12 -7 8 34
27 54 25 59 24 66 -26z m-393 -217 c-17 -29 -31 -49 -31 -44 0 13 53 107 58
102 2 -3 -10 -29 -27 -58z m-1273 33 c8 -5 -21 -10 -73 -13 -47 -3 -89 -9 -92
-12 -4 -4 2 -13 13 -20 10 -8 28 -22 39 -31 20 -16 19 -16 -5 -10 -18 4 -15 0
12 -15 67 -36 50 -40 -24 -5 -73 35 -104 44 -93 25 3 -5 14 -10 23 -10 48 0
190 -89 176 -111 -2 -4 5 -14 17 -22 11 -9 28 -26 37 -39 12 -17 13 -20 2 -12
-26 19 -136 76 -116 60 11 -9 16 -16 10 -16 -16 0 -39 19 -39 32 0 7 -10 12
-22 11 -11 -1 -27 4 -33 12 -15 18 -34 20 -23 3 4 -7 8 -16 8 -20 0 -3 4 -10
9 -15 5 -5 6 -3 2 5 -10 16 6 15 29 -2 18 -13 17 -14 -12 -12 -18 1 -43 12
-57 25 -29 28 -35 18 -8 -12 13 -16 14 -19 2 -15 -16 5 -73 97 -85 136 -6 20
0 25 42 44 91 41 227 61 261 39z m60 -36 c34 -8 88 -28 120 -44 61 -31 162
-108 162 -124 0 -5 14 -25 30 -44 31 -35 42 -66 17 -44 -8 6 -16 8 -19 5 -3
-3 -9 0 -14 7 -5 8 -3 10 7 4 25 -16 -37 58 -71 84 -19 14 -31 20 -26 14 11
-19 3 -16 -51 16 -26 16 -59 32 -73 36 -14 3 0 -8 30 -25 70 -39 170 -117 170
-132 0 -6 -13 0 -28 15 -15 15 -31 27 -35 27 -4 0 8 -14 28 -31 19 -17 33 -35
30 -39 -3 -5 -1 -11 4 -15 6 -3 8 4 6 16 -2 12 -1 19 3 15 7 -8 10 -66 3 -66
-2 0 -19 12 -38 26 -62 47 -133 72 -195 68 -67 -4 -69 -3 -154 118 -30 43 -66
86 -81 95 l-27 18 39 6 c68 10 98 9 163 -6z m645 -65 c36 -42 47 -77 46 -139
0 -29 -2 -32 -9 -16 -7 17 -9 14 -11 -15 -1 -28 -4 -24 -13 27 -6 34 -15 65
-20 70 -5 5 -7 1 -3 -8 3 -9 9 -38 12 -65 l7 -49 -21 22 c-11 12 -21 30 -21
40 0 15 -2 15 -9 3 -6 -8 -7 -19 -3 -25 3 -5 -1 -4 -10 3 -9 7 -18 27 -21 45
-5 32 22 147 35 147 3 0 22 -18 41 -40z m-227 -30 c15 -22 29 -40 31 -40 2 0
1 5 -2 10 -3 6 -4 10 -1 10 6 0 46 -75 46 -85 0 -15 -30 -2 -35 16 -4 11 -9
18 -12 16 -2 -3 0 -15 6 -26 6 -11 13 -62 16 -113 l4 -93 -19 37 c-11 20 -24
40 -30 43 -5 3 -10 16 -10 28 0 18 -2 19 -10 7 -8 -12 -10 -10 -11 10 0 14 -5
34 -10 45 -7 15 -8 12 -3 -12 4 -25 2 -33 -10 -33 -12 0 -14 18 -13 119 2 110
3 118 20 110 9 -6 29 -28 43 -49z m1551 -12 c-8 -97 -59 -204 -97 -202 -14 1
-45 2 -69 3 -37 1 -42 3 -31 16 8 9 9 15 2 15 -6 0 -13 -4 -16 -9 -3 -5 -23
-9 -43 -9 l-38 0 77 74 c81 78 92 101 17 36 -65 -55 -160 -124 -165 -119 -9 8
55 85 89 106 36 22 78 64 47 46 -8 -4 -30 -19 -47 -32 -37 -27 -43 -18 -13 20
11 14 19 31 18 38 -2 6 4 14 12 16 13 4 13 3 0 -6 -9 -7 -10 -11 -3 -11 21 0
24 18 6 30 -15 8 -12 9 11 4 22 -5 27 -4 21 6 -5 9 -4 11 4 6 6 -4 17 -3 24 2
7 6 44 13 82 17 39 4 77 11 85 16 29 17 33 8 27 -63z m-1140 -46 c3 -43 -10
-46 -27 -7 l-18 40 1 -32 c1 -17 6 -29 11 -25 5 3 6 -2 3 -12 -4 -10 -7 -22
-7 -27 0 -19 -49 26 -50 46 -1 20 -1 20 -10 0 -9 -20 -9 -20 -10 0 -2 17 -3
16 -10 -5 -6 -19 -8 -20 -9 -6 -2 30 21 96 31 90 5 -3 6 7 2 23 -6 27 -4 26
43 -20 27 -26 50 -56 50 -65z m733 14 c-15 -78 -60 -177 -106 -233 -37 -45
-121 -109 -131 -99 -3 3 2 8 11 12 9 3 14 10 11 14 -3 5 0 12 6 16 8 5 9 3 4
-7 -5 -8 -4 -11 1 -6 9 8 10 12 13 38 1 8 6 8 16 -1 8 -7 15 -10 15 -6 0 16 5
24 36 59 19 20 34 40 34 45 -1 4 -20 -15 -43 -41 -23 -27 -46 -45 -50 -41 -16
16 -5 45 28 70 19 14 35 31 35 37 0 6 -11 1 -23 -12 -14 -12 -31 -19 -40 -16
-8 4 -29 -1 -47 -10 -25 -13 -35 -14 -46 -4 -11 9 -18 8 -34 -6 -11 -10 -23
-16 -26 -13 -3 3 10 18 29 32 37 28 56 34 38 12 -8 -10 -9 -16 -1 -21 5 -3 10
-2 10 3 0 6 35 31 79 56 43 25 87 56 97 68 l19 22 -25 -17 c-79 -53 -181 -103
-126 -62 39 29 4 14 -59 -26 -36 -22 -71 -49 -78 -58 -6 -10 -21 -22 -31 -28
-11 -6 -21 -18 -22 -27 -1 -9 2 -14 7 -10 5 3 7 9 4 14 -3 4 32 17 77 28 46
11 91 23 101 27 20 8 22 -3 7 -56 -12 -42 -64 -124 -80 -124 -5 0 -9 -3 -7 -6
1 -3 -4 -13 -10 -21 -16 -18 -76 -22 -70 -5 3 7 9 11 16 10 11 -3 91 92 91
107 0 5 -22 -15 -49 -43 -27 -29 -53 -48 -57 -44 -4 4 8 21 27 38 24 22 26 25
5 10 -16 -12 -32 -21 -36 -21 -7 0 -18 25 -25 55 -2 6 -4 12 -5 15 -10 27 -6
50 10 65 11 10 17 21 15 25 -3 5 18 29 46 54 28 25 46 46 39 46 -17 0 -161
-151 -176 -185 -9 -22 -13 -25 -14 -11 -1 49 127 194 206 233 21 11 87 39 146
62 58 23 115 52 125 63 16 18 18 19 22 3 1 -10 -2 -45 -9 -79z m-591 -28 c17
-23 31 -49 30 -57 0 -11 -3 -10 -8 4 -6 15 -9 8 -12 -30 -4 -46 -2 -52 34 -89
21 -22 36 -45 33 -53 -3 -8 -1 -11 4 -8 10 6 4 -40 -10 -79 -5 -15 -8 -10 -13
22 -4 22 -11 44 -17 47 -6 3 -7 -1 -4 -9 11 -30 -6 -16 -21 17 -8 17 -13 24
-10 15 3 -11 -1 -18 -10 -18 -8 0 -15 5 -15 11 0 5 -4 8 -8 5 -15 -9 -7 60 9
85 11 16 14 31 8 47 -10 27 -19 29 -12 3 3 -11 0 -28 -5 -38 -10 -16 -12 -15
-21 10 -6 16 -14 47 -18 70 l-6 42 -12 -29 c-12 -28 -13 -29 -19 -8 -9 29 0
59 32 101 l26 35 7 -27 c4 -15 21 -46 38 -69z m-689 -49 c16 -28 9 -24 -35 23
-38 40 -39 40 -7 19 17 -12 37 -31 42 -42z m279 7 l32 -33 -24 -36 -25 -37
-16 23 c-10 13 -19 17 -22 11 -2 -6 -12 -20 -20 -30 -14 -18 -15 -17 -10 16 8
44 36 120 45 120 4 0 22 -15 40 -34z m-647 -13 c33 -13 37 -18 24 -25 -11 -6
-27 -5 -44 1 l-27 11 30 -5 c25 -4 27 -3 12 5 -9 6 -27 8 -38 5 -19 -7 -20 -7
-2 -20 16 -12 11 -13 -40 -11 -50 3 -57 2 -52 -13 4 -14 -1 -17 -27 -15 l-33
1 30 -6 c22 -4 9 -7 -45 -12 l-75 -6 82 1 c44 1 79 -2 77 -5 -2 -4 5 -9 16
-12 11 -3 20 -9 20 -15 0 -5 -22 -3 -52 4 -64 17 -90 18 -68 4 8 -5 27 -10 41
-10 15 0 29 -6 32 -13 3 -7 24 -19 48 -26 24 -7 55 -22 69 -34 16 -13 19 -18
7 -14 -49 18 -129 38 -133 34 -2 -2 41 -19 97 -36 76 -24 99 -35 88 -43 -10
-7 -7 -7 10 -3 16 5 21 4 17 -4 -4 -6 -1 -11 8 -11 8 0 18 -5 22 -12 5 -7 2
-9 -9 -5 -8 3 -33 8 -54 11 l-38 6 35 -12 c23 -7 29 -13 18 -15 -9 -2 -63 11
-120 30 -57 19 -105 33 -107 31 -7 -7 93 -46 147 -57 28 -6 52 -14 52 -18 0
-13 -41 -21 -78 -15 -27 4 -31 3 -17 -4 20 -9 20 -9 0 -9 -11 0 -40 8 -65 19
-31 14 -39 15 -25 4 11 -8 39 -20 63 -27 42 -11 57 -27 25 -27 -40 1 -106 43
-165 106 -35 36 -87 92 -116 122 l-54 57 24 18 c36 30 118 69 173 83 60 16
160 10 217 -13z m857 -7 c8 -10 9 -16 1 -21 -5 -3 -10 -14 -10 -23 0 -13 2
-14 9 -3 5 8 11 9 15 3 5 -9 -13 -22 -41 -28 -8 -1 -13 9 -14 24 l-1 27 -10
-27 c-11 -32 -20 -35 -38 -13 -9 10 -9 15 -1 15 6 0 10 3 9 8 -1 4 7 21 17 39
20 33 36 33 64 -1z m108 -12 c19 -21 32 -43 29 -51 -3 -8 -2 -12 2 -9 4 2 7
-15 7 -38 0 -36 -2 -40 -12 -27 -7 9 -13 21 -13 27 0 5 -7 19 -16 30 -8 10
-13 13 -9 7 3 -7 3 -13 0 -13 -3 0 -13 15 -21 33 -9 19 -13 23 -10 10 5 -29
-19 -31 -34 -3 -8 15 -7 26 6 45 22 33 30 32 71 -11z m-227 -70 c-15 -7 -30
-21 -33 -31 -3 -10 -5 0 -6 21 -1 47 -10 44 -14 -5 -2 -27 -7 -34 -23 -33 -15
0 -20 -5 -17 -20 2 -12 -3 -30 -11 -41 -15 -19 -15 -19 -10 5 l5 25 -15 -25
-16 -25 -6 22 c-3 13 -10 20 -15 17 -14 -8 -10 33 7 74 13 31 17 35 27 22 7
-8 24 -23 38 -32 l27 -17 -11 28 c-9 24 -7 33 12 59 l22 32 34 -32 33 -33 -28
-11z m-465 35 c22 -11 53 -30 70 -44 26 -22 27 -24 8 -22 -12 0 -19 5 -16 11
3 5 1 6 -6 2 -16 -11 6 -37 28 -34 10 2 15 -3 13 -14 -1 -10 4 -31 13 -47 8
-17 15 -33 15 -36 0 -3 -41 22 -92 56 -91 62 -186 103 -217 96 -9 -2 6 -10 32
-17 27 -7 44 -16 38 -19 -6 -4 10 -17 35 -30 57 -27 71 -21 17 8 -21 11 -33
20 -27 21 21 0 108 -65 110 -83 2 -15 0 -16 -12 -6 -7 6 -12 15 -9 19 7 12
-13 23 -26 14 -7 -4 0 -18 19 -38 29 -30 48 -77 36 -89 -4 -3 -20 1 -36 9 -17
9 -28 18 -25 21 3 2 17 -3 31 -12 14 -10 26 -15 26 -12 0 8 -53 40 -69 42 -9
1 -29 7 -44 13 -44 19 -46 13 -4 -9 21 -11 43 -17 50 -13 8 5 8 3 -1 -7 -11
-12 -27 -7 -102 32 -49 25 -85 40 -79 33 5 -7 36 -25 67 -40 36 -17 51 -29 40
-31 -40 -9 -180 91 -244 175 l-36 47 84 8 c45 4 110 11 143 16 73 10 117 5
170 -20z m179 -20 c26 -17 49 -41 52 -55 10 -40 -2 -39 -30 3 -14 20 -26 33
-26 28 0 -6 7 -19 15 -29 8 -10 12 -23 9 -27 -3 -5 0 -17 5 -27 15 -29 21 -93
7 -85 -6 4 -2 -3 8 -15 20 -23 9 -31 -12 -10 -9 9 -12 9 -12 0 0 -7 18 -21 40
-31 22 -10 37 -20 34 -23 -3 -3 0 -9 7 -14 8 -5 10 -3 4 6 -6 10 -4 12 8 7 12
-4 17 3 22 36 10 59 19 71 69 101 51 29 68 33 60 11 -4 -8 -9 -13 -13 -11 -3
2 -7 -12 -9 -32 -1 -21 -9 -42 -18 -48 -10 -8 -17 -36 -21 -83 -6 -70 -6 -71
-24 -52 -33 35 -34 67 -4 156 3 11 -3 4 -14 -15 -11 -19 -20 -42 -21 -51 0 -9
-7 -22 -16 -30 -13 -11 -8 -19 41 -66 60 -57 61 -68 3 -28 -20 14 -40 25 -44
25 -5 0 -24 15 -43 33 -20 17 -28 23 -18 11 9 -11 15 -23 12 -26 -3 -3 5 -13
17 -24 12 -10 18 -13 13 -5 -5 10 -4 12 4 7 13 -9 5 -26 -13 -26 -6 0 -28 16
-47 36 -32 33 -34 40 -35 102 -1 59 -3 67 -20 67 -22 0 -44 40 -46 87 -3 49 1
128 6 128 3 0 25 -14 50 -31z m461 -20 c-3 -4 5 -11 19 -15 14 -3 31 -16 39
-28 14 -21 14 -22 -14 -18 -18 3 -29 0 -29 -8 0 -7 -8 -9 -20 -5 -24 8 -110
-4 -110 -15 0 -4 30 -6 68 -4 37 2 62 1 56 -2 -7 -3 11 -27 42 -56 30 -28 52
-53 49 -56 -3 -3 -23 12 -45 33 -22 22 -40 36 -40 32 0 -4 -15 0 -32 9 -38 20
-92 29 -83 14 3 -6 12 -10 18 -10 27 0 87 -22 87 -31 0 -6 -6 -7 -12 -3 -8 5
-7 1 2 -10 16 -20 22 -46 11 -46 -4 0 -20 14 -36 30 -16 17 -34 30 -41 30 -7
0 -15 6 -18 13 -4 6 -4 2 -2 -10 2 -13 1 -25 -4 -28 -10 -6 -20 19 -20 53 0
19 -3 23 -9 14 -7 -11 -9 -11 -14 2 -4 9 -2 16 3 16 5 0 12 9 15 20 3 11 13
20 21 20 8 0 14 7 14 16 0 9 5 12 12 8 6 -4 8 -3 5 4 -14 21 4 40 39 40 19 0
32 -4 29 -9z m-135 -14 c0 13 38 17 45 5 7 -11 -24 -42 -36 -35 -5 4 -6 -2 -2
-11 3 -9 2 -15 -3 -13 -47 22 -64 34 -61 43 2 6 12 10 21 10 9 -1 16 3 16 10
0 6 5 4 10 -4 5 -8 10 -10 10 -5z m1258 1 c34 -1 62 -2 62 -4 0 -31 -128 -192
-153 -192 -5 0 -3 8 4 17 12 14 10 14 -14 -2 -15 -10 -30 -15 -33 -12 -3 3
-22 0 -42 -7 -24 -8 -61 -10 -107 -6 -38 4 -65 8 -59 8 6 1 10 12 10 24 -1 16
7 24 32 30 17 5 32 13 32 18 0 6 12 10 28 10 15 0 34 5 42 10 20 13 5 12 -65
-2 -44 -9 -54 -13 -39 -19 17 -7 17 -8 -3 -8 -18 -1 -23 5 -23 24 0 14 -2 25
-4 25 -2 0 -24 -12 -49 -26 -25 -14 -68 -27 -94 -29 l-48 -4 39 20 c21 12 80
32 130 45 65 18 78 23 44 20 -26 -3 -73 -15 -105 -27 -32 -11 -66 -21 -75 -22
-9 -1 -14 -6 -11 -11 4 -5 -1 -7 -10 -3 -10 4 -16 2 -14 -5 1 -6 -3 -12 -10
-15 -6 -2 -10 3 -9 13 1 9 27 30 57 46 50 27 50 29 2 12 -11 -4 -8 1 6 11 13
10 56 29 95 42 39 13 55 21 36 18 -26 -4 -31 -2 -20 6 10 7 62 8 160 3 80 -4
173 -8 208 -8z m-1286 -53 c24 -21 23 -33 -2 -33 -13 0 -20 7 -20 20 0 19 -1
19 -35 -1 -39 -23 -47 -16 -13 12 26 23 46 24 70 2z m468 -17 c0 -13 9 -45 21
-71 16 -37 20 -62 17 -106 l-4 -59 65 2 66 2 -57 3 c-55 4 -83 22 -35 24 21 0
21 1 2 9 -42 18 51 10 131 -11 46 -12 95 -19 117 -16 20 3 37 2 37 -2 0 -15
-72 -90 -106 -111 -38 -24 -40 -39 -3 -19 24 12 64 24 134 39 37 8 36 9 -18 6
-55 -3 -56 -2 -40 16 9 10 26 18 37 18 17 0 18 2 6 11 -11 7 2 9 47 7 33 -2
59 0 57 4 -2 4 6 8 18 10 15 2 1 8 -37 17 -33 8 -64 21 -68 28 -7 11 -12 11
-22 3 -8 -7 -37 -12 -65 -12 -58 1 -84 12 -54 23 16 6 14 8 -9 8 -16 1 -26 -3
-23 -7 2 -4 -20 -3 -49 2 l-54 10 37 24 c22 13 28 21 15 17 -12 -3 -24 -1 -28
4 -3 6 0 8 8 5 8 -3 21 1 28 9 9 9 22 11 34 6 11 -4 27 -8 35 -8 8 1 2 5 -13
11 l-29 10 29 19 c34 23 40 23 40 4 0 -9 -6 -14 -13 -11 -8 3 -16 0 -20 -5
-12 -20 147 1 199 25 26 13 47 19 47 15 0 -21 -43 -119 -52 -119 -6 0 -5 7 3
18 11 14 11 15 -1 5 -33 -30 -72 -3 -40 27 9 8 10 11 3 6 -8 -5 -16 -6 -19 -3
-3 3 -24 -1 -47 -8 -23 -7 -64 -16 -91 -20 -76 -10 -36 -26 59 -23 77 2 84 0
181 -45 55 -26 107 -47 115 -47 8 0 20 -4 27 -9 10 -6 -9 -22 -64 -55 -87 -51
-124 -61 -169 -46 -30 10 -29 10 6 5 20 -3 46 -2 59 3 21 8 2 8 -143 4 -27 -1
-46 -6 -42 -11 3 -6 -16 -9 -47 -9 -42 1 -48 4 -34 12 10 6 25 17 34 24 15 12
15 12 -3 5 -18 -8 -36 -8 -123 -4 -15 1 -21 5 -16 12 7 11 -45 6 -82 -8 -10
-4 -12 0 -8 10 3 9 12 13 22 10 14 -5 14 -3 -1 9 -18 13 -18 14 2 32 19 17 32
18 128 13 58 -4 103 -4 100 0 -4 3 -55 10 -115 14 -129 10 -132 10 -127 20 3
3 0 21 -7 39 l-11 33 -18 -24 c-13 -16 -19 -19 -18 -9 0 8 6 24 14 34 8 11 15
27 15 35 -1 9 -8 3 -17 -14 -8 -16 -22 -38 -30 -47 -8 -9 -12 -21 -9 -27 4 -5
1 -13 -5 -17 -8 -5 -10 -3 -4 7 4 8 0 7 -10 -3 -34 -32 -5 -32 34 0 22 18 42
32 45 32 3 0 6 -28 6 -62 0 -45 -6 -72 -20 -96 -22 -36 -67 -59 -84 -42 -7 7
-5 10 7 10 9 0 17 5 17 11 0 5 5 7 12 3 6 -4 8 -3 5 3 -4 6 0 16 8 23 8 7 15
16 15 20 0 5 -13 -5 -29 -21 -16 -16 -38 -29 -48 -29 -13 0 -8 8 20 31 20 17
37 35 37 42 0 6 -13 -1 -28 -16 -16 -15 -32 -24 -37 -20 -4 5 -5 2 -1 -4 4 -7
3 -13 -3 -13 -17 0 -31 37 -31 84 0 25 -3 47 -7 49 -5 3 -6 -22 -5 -55 3 -37
-1 -64 -8 -72 -9 -8 -10 1 -6 39 l6 50 -14 -48 c-7 -27 -19 -54 -25 -60 -9 -9
-11 -8 -5 8 7 20 7 20 -9 0 -19 -24 -21 -15 -6 35 9 30 8 48 -5 93 -9 30 -16
74 -16 97 l0 41 40 -32 c21 -17 38 -36 37 -42 -1 -6 4 -11 11 -12 22 0 42 -36
42 -74 0 -27 -3 -32 -10 -21 -7 11 -10 7 -10 -18 0 -38 15 -35 32 6 15 38 19
74 7 66 -6 -3 -5 3 2 14 7 12 16 19 20 16 4 -2 11 1 15 7 5 8 3 9 -6 4 -18
-11 -3 32 25 70 12 17 30 51 39 78 19 50 36 62 36 23z m-216 -9 c6 -7 20 -19
31 -27 15 -11 14 -8 -3 8 -31 29 -16 28 29 -3 47 -31 54 -61 30 -122 -11 -26
-20 -40 -20 -30 -1 9 -5 17 -10 17 -5 0 -13 9 -16 21 -4 11 -26 40 -50 64 -23
24 -45 55 -47 70 -5 24 -3 26 20 20 14 -3 31 -12 36 -18z m1236 -24 c25 -14
47 -28 50 -30 3 -3 -9 -17 -27 -31 -17 -15 -54 -55 -83 -89 -28 -35 -58 -63
-67 -63 -12 0 -7 9 17 31 32 27 25 31 -9 5 -21 -16 -81 -17 -110 0 l-26 14 29
-6 c22 -5 27 -4 21 6 -5 9 -4 11 4 6 6 -4 18 0 27 8 8 9 21 16 28 16 8 0 19 6
25 14 8 9 -10 5 -48 -10 -71 -29 -121 -40 -121 -27 0 5 32 17 71 27 39 10 68
20 66 23 -3 2 -39 -5 -79 -16 -41 -12 -81 -21 -88 -21 -22 0 49 45 93 59 40
14 51 26 15 17 -13 -3 -8 1 10 9 19 9 66 19 105 24 40 5 59 9 42 10 -16 1 -48
4 -69 8 -27 4 -37 3 -33 -5 5 -6 0 -8 -12 -5 -17 4 -18 8 -8 24 6 10 21 19 32
19 16 0 17 2 6 9 -11 7 -7 10 15 13 35 4 64 -5 124 -39z m-2590 27 c-13 -8
-12 -10 3 -10 10 0 16 -4 12 -9 -3 -5 3 -12 12 -14 10 -3 2 -6 -17 -7 -34 -3
-34 -3 10 -10 l45 -7 -57 -1 c-31 -1 -59 -6 -62 -10 -3 -5 22 -6 55 -4 37 3
65 0 72 -7 8 -8 -1 -11 -33 -12 -25 0 -54 -5 -65 -10 -14 -6 -5 -7 30 -4 l50
4 -38 -12 c-21 -7 -35 -16 -31 -20 4 -3 0 -9 -8 -12 -8 -3 -36 6 -62 21 -46
26 -47 27 -29 47 24 26 105 86 118 87 6 0 3 -5 -5 -10z m910 -12 c35 -24 52
-51 29 -46 -7 2 -22 12 -32 23 -17 18 -17 17 1 -15 13 -22 18 -45 15 -62 -7
-38 -22 -35 -30 5 l-7 32 -6 -30 c-7 -30 -7 -30 -14 10 -4 22 -11 55 -15 73
-8 27 -6 32 8 32 10 0 33 -10 51 -22z m-220 -24 c8 -8 27 -21 45 -28 17 -7 39
-21 48 -30 22 -22 11 -43 -11 -23 -39 33 -44 27 -9 -10 20 -21 34 -42 31 -46
-4 -4 -1 -14 6 -22 17 -21 -1 -41 -27 -30 -10 5 -25 7 -35 6 -21 -3 -64 87
-74 152 -7 49 3 60 26 31z m423 10 c11 -11 -21 -48 -43 -49 -17 -1 -18 0 -6
14 7 9 11 22 9 29 -5 12 28 17 40 6z m50 -90 c11 -12 8 -44 -4 -41 -6 1 -14
-4 -17 -12 -3 -8 0 -11 7 -7 7 5 9 1 5 -8 -10 -25 -24 -18 -24 12 0 21 -2 24
-10 12 -7 -11 -10 -5 -10 23 0 36 -13 50 -23 25 -4 -10 -6 -10 -6 -1 -1 7 11
24 26 38 l28 25 10 -29 c5 -16 13 -33 18 -37z m-93 8 c0 -10 14 -39 30 -65 33
-53 38 -77 15 -77 -8 0 -15 5 -15 12 0 6 -2 9 -5 6 -3 -3 -2 -16 3 -29 5 -13
12 -40 16 -60 5 -28 3 -36 -8 -36 -9 0 -13 4 -10 9 10 16 -7 30 -22 17 -16
-13 -19 1 -4 19 7 9 7 9 -2 2 -21 -17 -28 -11 -34 31 -5 27 -10 36 -15 27 -19
-29 -8 65 12 113 22 50 39 64 39 31z m200 -71 c0 -11 6 -21 13 -23 14 -5 17
-96 4 -140 -6 -24 -4 -28 13 -28 11 0 20 -5 20 -11 0 -5 -6 -7 -12 -3 -7 4 -2
-5 11 -19 28 -31 38 -29 21 4 -11 19 -10 25 6 36 16 12 21 10 42 -14 l24 -28
-16 28 c-9 15 -14 32 -10 38 8 13 30 -28 59 -111 13 -36 26 -73 30 -82 6 -15
1 -18 -29 -18 -98 0 -215 107 -174 158 8 9 8 16 0 24 -9 9 -12 8 -12 -5 0 -9
-3 -17 -7 -17 -5 0 -7 33 -5 74 2 41 -1 83 -7 93 -7 13 -8 -2 -4 -53 3 -40 2
-85 -3 -100 -8 -29 -8 -29 -14 11 l-7 40 -2 -37 c-1 -37 -13 -49 -26 -28 -4 6
-11 8 -16 4 -6 -3 -8 4 -6 18 2 12 2 17 0 10 -9 -26 -28 -4 -31 35 -2 28 7 68
27 120 16 43 32 87 36 98 6 18 9 17 41 -17 19 -21 34 -46 34 -57z m-1164 59
c9 0 12 -4 9 -10 -3 -5 2 -10 12 -11 21 -1 14 -4 -46 -19 -23 -6 -41 -14 -38
-16 3 -3 30 1 61 9 31 9 58 12 61 7 2 -4 -19 -12 -48 -18 -56 -12 -132 -40
-125 -48 3 -2 21 2 40 10 53 23 155 44 169 36 13 -9 -2 -14 -66 -25 -57 -9
-118 -26 -113 -31 3 -2 45 5 94 16 97 21 138 25 130 11 -3 -4 -27 -14 -53 -21
-27 -7 -52 -17 -57 -21 -6 -5 -21 -9 -35 -9 -15 0 -33 -5 -41 -10 -18 -12 -9
-12 47 -1 51 10 64 2 26 -15 -26 -12 -25 -13 17 -7 73 9 38 -7 -47 -23 -77
-13 -35 -13 72 2 35 5 47 3 40 -4 -13 -14 -176 -42 -244 -42 -40 0 -52 -3 -44
-11 10 -10 126 -1 213 17 19 4 22 3 10 -5 -8 -5 -40 -13 -70 -17 -30 -3 -62
-10 -70 -15 -9 -5 0 -6 22 -2 46 7 80 -3 58 -17 -8 -6 -31 -10 -50 -11 -31 -2
-32 -3 -7 -6 38 -6 24 -23 -21 -24 -30 -2 -32 -3 -9 -6 25 -4 26 -6 11 -20
-14 -15 -20 -14 -60 6 -25 12 -67 42 -94 67 l-50 46 24 19 c14 11 44 47 69 82
25 34 55 72 68 83 34 30 85 62 76 47 -9 -15 -6 -16 18 -7 13 6 14 9 3 16 -9 7
-8 8 5 4 10 -3 25 -6 33 -6z m493 -7 c3 -5 20 -15 38 -22 33 -13 72 -48 40
-36 -8 4 -18 2 -22 -4 -3 -6 0 -11 7 -11 8 0 23 -7 34 -15 17 -14 18 -15 0 -9
-10 4 -21 2 -25 -4 -5 -8 -20 -7 -55 3 -27 8 -63 14 -80 14 -21 -1 -12 -5 27
-11 34 -6 56 -15 54 -21 -5 -16 -65 -27 -105 -20 -25 4 -31 2 -27 -9 5 -12 -6
-14 -56 -12 -47 2 -59 0 -50 -9 6 -6 38 -11 70 -12 33 0 57 -3 54 -7 -2 -5 2
-8 10 -8 8 0 20 -7 27 -15 11 -13 7 -15 -21 -17 -31 -1 -30 -2 11 -9 40 -6 38
-7 -22 -5 -37 1 -62 -2 -55 -6 6 -4 39 -8 72 -9 101 -1 107 -11 29 -46 -38
-17 -125 -52 -194 -79 -68 -26 -120 -49 -114 -51 10 -3 254 91 308 119 19 9
19 9 6 -5 -8 -8 -51 -30 -95 -47 -44 -18 -84 -37 -90 -42 -5 -5 14 0 43 11 60
24 66 25 57 11 -3 -6 1 -7 10 -3 12 4 13 8 5 13 -9 5 -6 10 9 15 13 4 25 4 28
1 4 -3 2 -6 -4 -6 -6 0 -13 -8 -15 -18 -4 -12 -35 -28 -102 -51 -53 -18 -95
-35 -92 -38 3 -4 103 28 161 52 15 6 17 5 9 -4 -6 -7 -63 -30 -125 -51 -63
-22 -105 -39 -93 -40 21 0 99 25 167 55 l39 16 -18 -30 c-11 -19 -34 -37 -59
-46 l-40 -15 35 5 c22 3 28 2 17 -3 -10 -4 -17 -12 -16 -17 1 -6 -12 -17 -30
-26 -18 -10 -26 -19 -19 -21 7 -3 -2 -11 -20 -19 -18 -7 -30 -18 -29 -24 2 -5
-17 -16 -42 -22 l-46 -13 43 5 c23 3 61 8 85 11 35 6 40 4 29 -7 -24 -26 -164
-24 -251 2 -47 14 -99 23 -139 22 -40 0 -62 3 -62 11 0 27 31 123 54 171 42
84 240 265 277 253 7 -2 -9 -16 -34 -31 -26 -16 -47 -30 -47 -33 0 -3 5 -2 12
2 12 8 31 11 116 19 59 5 67 -1 21 -17 -16 -6 -28 -12 -26 -14 2 -2 23 2 45
10 23 9 42 12 42 7 0 -4 -19 -13 -42 -20 -47 -14 -141 -62 -134 -68 2 -3 23 5
47 18 67 33 148 59 188 58 29 0 14 -7 -70 -34 -73 -24 -129 -50 -180 -84 -87
-59 -109 -76 -109 -85 0 -4 28 13 63 37 34 25 89 58 122 75 68 33 231 86 244
78 5 -3 26 0 47 8 39 13 38 13 -56 18 -108 6 -170 26 -260 85 -61 39 -73 53
-43 53 9 0 62 26 117 59 56 32 115 63 131 69 34 13 154 9 164 -5z m1672 -14
c-25 -21 -57 -26 -45 -8 4 8 -1 9 -17 4 -18 -5 -21 -4 -9 4 8 6 23 8 34 5 10
-4 16 -2 13 2 -3 5 7 10 21 11 l27 1 -24 -19z m23 -56 c50 -20 115 -44 144
-53 l53 -16 -63 -49 c-35 -27 -90 -63 -123 -79 -52 -26 -72 -31 -145 -32 -82
-2 -82 -1 -20 5 59 5 62 7 31 14 -18 4 -57 7 -87 7 -48 0 -75 12 -60 27 3 4
48 9 98 13 53 4 72 8 46 8 -48 2 -63 14 -32 26 9 3 43 6 75 6 38 0 58 4 54 10
-4 6 11 10 37 10 24 0 49 4 56 8 7 5 -27 7 -75 5 -77 -3 -86 -2 -70 10 9 8 17
17 17 20 0 3 -24 11 -52 18 -42 10 -49 14 -33 20 16 6 12 8 -16 8 -19 1 -53
10 -75 20 l-39 20 55 3 c124 9 132 8 224 -29z m-1461 -60 c18 -9 27 -18 20
-20 -7 -2 -20 0 -30 5 -21 11 -152 -3 -167 -18 -12 -12 -9 -12 34 0 54 15 101
-3 122 -46 l17 -37 -42 6 c-117 16 -132 17 -112 8 11 -5 35 -10 53 -10 17 -1
32 -5 32 -11 0 -5 24 -10 53 -10 29 0 58 -5 65 -12 9 -9 15 -9 24 0 9 9 8 12
-4 12 -19 0 -78 47 -78 61 0 6 5 7 12 3 7 -4 8 -3 4 5 -4 6 -11 9 -16 6 -4 -3
-10 3 -12 13 -4 15 3 17 71 14 95 -4 121 -14 61 -22 -44 -7 -44 -7 17 -8 34
-1 64 -6 67 -11 5 -8 -74 -31 -121 -34 -11 -1 -19 -6 -16 -10 3 -5 17 -6 32
-3 19 5 22 4 11 -4 -8 -5 -12 -10 -7 -10 4 0 -1 -8 -11 -18 -15 -15 -29 -17
-107 -11 -52 4 -113 16 -146 28 -54 20 -139 83 -139 102 0 5 17 9 38 10 20 0
60 9 87 19 64 24 146 25 188 3z m1735 -77 c17 -9 38 -16 46 -16 8 0 17 -4 20
-9 7 -10 -61 -101 -75 -101 -6 0 -7 5 -4 10 3 6 0 10 -8 10 -8 0 -21 8 -28 17
-12 15 -12 16 3 10 9 -3 21 0 27 6 7 10 0 11 -31 9 -27 -3 -38 -1 -34 6 4 6
-5 12 -21 15 -23 3 -21 5 12 7 35 3 33 4 -20 9 l-60 6 35 22 c39 25 89 24 138
-1z m-835 -45 l77 -39 -31 -26 c-90 -76 -199 -93 -278 -45 -27 16 -31 22 -20
35 10 12 9 13 -6 8 -12 -5 -16 -4 -12 3 4 6 4 13 0 16 -5 2 -1 2 7 0 8 -2 35
-6 60 -8 l45 -4 -50 10 c-50 10 -83 28 -54 30 7 0 25 2 39 3 14 1 61 4 105 5
l80 4 -78 7 c-71 7 -117 20 -71 20 16 0 17 2 4 10 -11 7 3 10 46 10 51 0 73
-6 137 -39z m-658 15 c18 -13 17 -14 -13 -21 -17 -3 -35 -11 -39 -17 -4 -8 0
-9 13 -4 65 27 73 27 108 11 34 -16 36 -19 31 -59 l-6 -41 15 40 c9 22 16 41
16 43 0 1 5 2 10 2 6 0 10 -9 10 -19 0 -11 5 -23 11 -27 9 -5 10 1 5 20 -3 14
-2 26 3 26 17 0 19 -55 4 -87 -14 -30 -85 -93 -105 -93 -4 0 -8 8 -8 17 0 10
-7 36 -16 60 -11 29 -14 54 -9 80 6 32 9 35 15 18 7 -16 9 -17 9 -3 1 22 -16
32 -26 15 -4 -8 -17 -19 -28 -26 -11 -7 -13 -10 -4 -8 9 3 16 -1 16 -8 0 -7
-5 -11 -11 -9 -6 2 -33 -1 -61 -6 l-50 -9 52 3 c52 3 84 -6 70 -20 -11 -11
-120 -18 -159 -10 -61 12 -62 19 -11 71 26 26 57 54 68 61 25 18 66 18 90 0z
m943 -40 c28 -14 84 -57 125 -95 41 -38 94 -82 117 -97 47 -31 44 -34 -40 -55
-81 -19 -214 -14 -291 11 -81 27 -224 96 -241 118 -11 14 -10 15 7 8 11 -5 28
-8 38 -8 9 0 15 -3 12 -8 -6 -10 92 -63 135 -74 14 -3 3 5 -23 18 -27 13 -43
26 -37 28 7 2 -11 14 -39 28 -45 21 -66 40 -43 40 4 0 63 -23 131 -51 67 -27
128 -48 134 -46 7 3 4 8 -8 12 -11 4 -68 26 -127 49 -102 41 -107 44 -90 59
10 10 27 17 38 16 15 -1 14 -3 -6 -9 -18 -7 -12 -7 20 -4 32 4 61 0 100 -15
29 -11 56 -19 58 -17 5 6 -106 46 -128 46 -28 0 -51 11 -44 21 3 5 20 9 37 8
30 -1 30 -1 7 -8 -22 -7 -19 -8 21 -15 26 -4 78 -22 118 -41 39 -19 71 -31 71
-26 0 5 -22 19 -50 32 -27 13 -50 28 -50 32 0 5 -7 6 -16 3 -8 -3 -12 -2 -9 4
5 9 -56 30 -96 33 -11 1 -19 5 -19 10 0 4 -6 7 -12 6 -39 -5 -46 5 -8 11 78
12 154 3 208 -24z m402 24 c11 -8 7 -9 -15 -5 -30 6 -30 6 4 -10 19 -8 50 -25
70 -36 34 -19 21 -6 -24 26 -11 8 -15 14 -9 14 6 1 45 -29 85 -65 41 -37 84
-71 97 -77 28 -13 27 -17 -26 -60 -92 -77 -208 -133 -254 -124 -19 4 -18 5 7
7 l30 3 -35 8 c-30 7 -27 7 15 4 28 -3 57 0 65 5 11 8 7 9 -14 4 -16 -4 -27
-3 -23 2 3 5 -18 8 -46 7 -38 -2 -47 0 -32 6 18 9 17 10 -9 10 -28 1 -28 0
-12 -21 8 -13 34 -57 56 -99 41 -77 85 -131 130 -161 l25 -16 -79 -37 c-125
-57 -211 -67 -295 -33 l-26 10 30 14 c17 7 23 13 14 14 -27 0 -48 24 -54 61
l-7 37 51 -25 c28 -14 54 -24 56 -21 3 2 -22 17 -55 33 -33 16 -60 33 -60 38
0 5 3 7 8 5 101 -51 163 -78 187 -83 29 -5 29 -5 5 6 -134 60 -208 103 -219
125 -16 35 -14 37 16 17 14 -9 31 -18 37 -19 6 -1 38 -18 71 -38 33 -20 66
-36 74 -36 8 0 -23 22 -69 50 -79 48 -135 86 -203 140 -17 14 -28 19 -23 13
12 -22 1 -14 -25 14 -19 22 -20 24 -3 10 13 -11 23 -14 25 -8 2 6 55 -25 118
-69 100 -70 131 -88 131 -77 0 2 -44 32 -97 68 -93 62 -95 64 -64 67 18 2 38
-2 46 -8 7 -6 23 -13 35 -15 12 -2 36 -15 54 -28 45 -34 61 -42 52 -29 -11 18
5 14 29 -5 12 -10 -1 3 -29 30 -27 26 -55 47 -60 47 -6 0 5 -14 24 -31 l35
-31 -48 32 c-26 17 -52 28 -59 24 -7 -5 -8 -3 -4 5 5 7 15 10 24 6 8 -3 18 -1
22 5 3 5 27 10 53 11 25 1 44 6 41 11 -3 5 -2 8 3 7 4 -1 23 4 41 11 35 13 43
30 15 30 -10 0 -31 10 -48 21 l-30 21 27 -6 c81 -18 214 -18 196 -1 -2 3 -40
10 -84 16 -84 12 -219 47 -211 55 3 3 24 0 47 -6 23 -6 44 -9 46 -7 2 2 -25
12 -60 21 -81 22 -108 47 -49 44 22 0 46 3 53 7 8 5 11 4 7 -2 -4 -6 5 -10 21
-9 15 0 38 -3 52 -7 14 -4 7 1 -15 12 -33 15 -36 19 -20 23 11 2 38 -2 60 -9
21 -8 45 -11 53 -8 7 3 27 -2 44 -11 16 -8 32 -13 34 -11 4 4 -26 19 -106 54
l-25 11 35 16 c42 18 50 19 70 6z m-1750 -30 c12 -8 12 -10 -4 -16 -13 -5 -14
-9 -5 -14 8 -6 2 -13 -19 -24 -17 -9 -34 -20 -37 -26 -4 -6 22 5 58 25 35 19
75 35 88 34 18 0 11 -5 -25 -20 -57 -23 -120 -65 -160 -108 -46 -48 -21 -37
41 19 61 53 160 99 230 106 65 6 60 -11 -12 -41 -36 -16 -70 -34 -76 -42 -10
-11 -8 -12 6 -7 10 4 -2 -13 -26 -37 -27 -27 -55 -70 -73 -112 -28 -67 -29
-67 -85 -84 -53 -16 -225 -22 -238 -9 -3 3 17 26 45 51 28 26 73 81 98 123 47
76 149 192 169 192 5 0 17 -4 25 -10z m207 -89 c14 -13 29 -18 44 -14 13 3 -5
-12 -40 -33 -65 -39 -171 -134 -171 -152 0 -5 26 15 58 47 69 67 175 131 216
131 27 0 23 -4 -42 -50 -39 -27 -74 -55 -78 -61 -10 -16 5 -7 95 59 41 30 90
58 109 63 18 4 31 5 28 2 -3 -3 1 -18 9 -34 8 -15 15 -37 15 -49 0 -11 7 -20
15 -20 20 0 19 -16 -9 -99 -13 -39 -21 -71 -17 -71 4 0 14 18 21 40 7 22 17
40 21 40 10 0 29 57 29 89 1 16 10 33 25 44 l25 18 2 -48 1 -48 7 60 7 60 1
-64 c2 -52 -3 -74 -28 -125 -33 -68 -148 -205 -154 -184 -2 7 -11 48 -20 91
-19 93 -20 169 -2 217 7 19 16 44 20 55 7 19 6 19 -6 1 -7 -10 -23 -31 -35
-46 -15 -19 -19 -30 -12 -37 8 -8 7 -13 -2 -18 -8 -6 -10 -4 -4 6 5 8 5 11 1
7 -4 -3 -6 -9 -4 -12 2 -3 -15 -24 -37 -48 -40 -42 -25 -36 29 11 27 24 28 24
17 4 -15 -29 -110 -97 -190 -135 -35 -16 -98 -36 -140 -44 -116 -21 -117 -20
-82 24 16 20 46 75 66 122 47 110 72 141 139 176 62 32 68 43 11 19 -21 -8
-40 -13 -43 -11 -5 5 56 34 74 35 5 1 20 -8 31 -18z m409 -49 c-4 -29 -3 -33
4 -17 8 16 9 14 5 -13 -3 -23 6 -58 32 -120 20 -48 45 -112 55 -142 13 -38 17
-44 13 -20 -3 19 -26 85 -51 148 -26 62 -44 115 -42 117 7 7 115 -270 135
-344 9 -35 19 -59 21 -53 6 20 -36 156 -78 253 -49 111 -80 196 -80 218 0 9
11 -9 23 -40 13 -31 42 -83 65 -115 23 -33 42 -66 42 -74 0 -12 2 -12 9 -2 6
9 16 -8 34 -55 14 -37 26 -62 26 -55 1 7 -6 29 -14 49 -22 52 -9 54 14 2 21
-47 28 -49 10 -2 -6 17 -6 24 0 18 16 -16 49 -108 56 -157 9 -59 -13 -145 -61
-240 -59 -117 -86 -197 -79 -232 6 -29 1 -25 -75 49 -125 122 -199 243 -235
380 -17 67 -20 119 -6 96 7 -11 10 -10 14 5 3 10 3 -1 1 -26 -5 -44 24 -161
46 -184 5 -5 -2 26 -16 68 -25 81 -32 134 -14 106 8 -11 9 -7 4 15 -3 17 -7
36 -10 43 -2 7 1 10 6 7 6 -3 10 2 11 12 0 16 1 16 9 -2 4 -11 13 -40 19 -65
11 -48 9 -19 -4 68 -5 27 -3 42 4 42 6 0 11 -17 11 -37 0 -48 24 -150 51 -226
32 -86 35 -61 3 33 -28 84 -55 238 -45 255 3 5 8 -6 12 -25 36 -182 96 -368
135 -416 19 -23 22 -32 -42 132 -38 98 -84 280 -84 331 0 15 2 16 11 3 8 -11
9 -8 5 15 -4 19 -3 24 2 15 5 -8 14 -41 21 -72 7 -32 16 -60 21 -63 4 -3 0 28
-11 68 -10 39 -18 83 -18 97 0 14 13 -25 29 -86 37 -148 93 -329 98 -316 1 5
-15 70 -37 144 -45 149 -84 309 -77 315 2 2 14 -29 26 -69 58 -194 76 -248 82
-248 6 0 -47 185 -77 270 -28 76 -43 173 -31 192 9 16 11 16 19 2 5 -9 6 -32
3 -52z m257 20 c5 0 12 -4 15 -8 4 -4 1 -4 -7 1 -10 5 -12 4 -7 -3 5 -8 13 -9
24 -3 9 4 28 7 42 6 14 -1 30 1 36 6 7 6 35 -7 75 -33 35 -23 66 -43 69 -43
33 -6 63 -25 104 -64 28 -25 44 -37 36 -26 -8 11 1 7 19 -10 19 -16 42 -43 52
-60 11 -16 19 -25 19 -19 0 5 -11 25 -25 44 -14 19 -25 36 -25 39 0 3 10 -6
21 -22 11 -15 24 -25 28 -23 4 3 20 -7 37 -20 l29 -26 -34 23 c-32 21 -34 22
-27 3 37 -88 49 -133 67 -248 23 -152 39 -205 76 -254 l26 -35 -104 6 c-162
10 -279 50 -390 134 -55 42 -122 126 -117 148 2 10 20 -7 49 -48 25 -35 61
-74 80 -87 26 -19 19 -8 -28 45 -66 73 -85 109 -32 59 30 -27 30 -26 -6 23
-22 29 -41 50 -43 48 -3 -2 1 -11 8 -20 7 -9 10 -18 7 -21 -3 -3 -13 9 -22 26
-9 18 -12 29 -6 26 15 -10 13 5 -4 28 -8 10 -12 23 -9 28 3 5 0 16 -8 25 -11
14 -11 16 1 9 9 -6 12 -5 9 5 -3 8 -10 13 -15 12 -5 -1 -10 5 -10 13 0 8 2 14
4 14 14 0 117 -87 152 -129 67 -80 239 -211 278 -211 4 0 -29 25 -73 55 -96
66 -212 170 -201 181 4 4 36 -19 70 -52 76 -74 116 -103 62 -46 -21 23 -35 42
-31 42 5 0 2 7 -5 16 -12 15 -11 16 9 10 28 -9 28 -7 -8 51 -38 63 -63 123
-50 123 5 0 10 -3 10 -7 1 -13 80 -99 80 -87 0 6 -25 38 -56 72 -31 34 -54 67
-52 73 4 13 94 -91 142 -163 17 -26 35 -48 39 -48 14 0 -76 124 -140 192 -35
37 -63 73 -63 80 1 7 31 -18 67 -57 85 -90 67 -56 -23 44 -121 133 -131 142
-151 135 -15 -5 -15 -4 -3 5 12 8 10 10 -8 8 -22 -1 -22 -3 10 -28 18 -15 37
-27 42 -26 17 3 57 -82 82 -175 14 -55 37 -110 54 -135 16 -24 25 -43 20 -43
-51 0 -269 138 -357 226 -61 62 -123 155 -122 184 0 10 2 11 6 2 2 -6 9 -10
14 -7 5 4 6 -2 2 -12 -5 -14 -3 -16 7 -6 16 15 36 7 78 -29 18 -16 37 -26 41
-24 4 3 23 -10 41 -29 19 -19 38 -35 44 -35 5 0 -3 14 -20 31 -33 35 -92 79
-80 61 11 -17 -9 -15 -24 3 -11 13 -10 14 4 9 9 -3 16 -1 16 6 0 20 105 -77
151 -140 23 -32 45 -58 47 -56 9 10 -26 56 -96 129 -42 42 -71 77 -65 77 16 0
10 26 -13 51 l-19 23 35 -21 c19 -12 39 -21 43 -21z m744 -27 l58 -15 -55 6
c-31 3 -62 12 -70 21 -8 9 -10 13 -3 9 6 -3 37 -13 70 -21z m238 -124 c-3 -5
4 -12 14 -16 25 -8 95 -101 86 -115 -3 -5 -12 -10 -20 -10 -7 0 -42 -13 -77
-30 -63 -30 -105 -39 -93 -20 3 6 -1 10 -9 10 -9 0 -16 3 -16 8 0 4 19 7 43 5
45 -2 36 2 -25 12 -21 3 -38 10 -38 15 0 5 14 4 31 -2 16 -6 32 -8 35 -5 3 3
-12 10 -33 17 -21 7 -42 17 -48 23 -7 7 -5 8 5 3 8 -4 4 2 -9 14 -36 31 -16
46 45 31 25 -7 48 -10 51 -8 2 3 -8 8 -23 11 l-27 7 34 18 c19 10 40 16 48 13
9 -3 12 -1 8 5 -4 6 -1 14 5 16 19 8 20 8 13 -2z m-1510 -66 c-2 -27 0 -43 6
-40 5 4 0 -18 -12 -47 -65 -162 -120 -311 -116 -315 4 -3 107 248 107 261 0
13 32 77 37 73 2 -3 -11 -49 -31 -103 -20 -53 -35 -101 -33 -107 1 -5 16 29
32 77 17 47 34 86 38 86 5 0 6 -11 3 -24 -5 -22 14 -53 26 -40 11 10 19 -68
14 -124 l-5 -57 11 45 c8 31 13 39 16 25 2 -11 9 -25 14 -32 12 -15 -14 -137
-42 -201 -27 -61 -113 -141 -228 -211 -54 -33 -116 -76 -137 -95 l-40 -33 -33
74 c-70 160 -87 278 -58 414 15 71 68 212 91 243 26 35 26 10 0 -36 -27 -49
-68 -159 -61 -165 2 -3 7 6 11 19 11 37 78 179 82 174 3 -2 -5 -23 -17 -45
-27 -53 -41 -91 -34 -91 3 0 21 34 39 75 36 78 49 94 40 48 l-6 -28 15 25 c18
29 20 44 6 35 -5 -3 -10 -1 -10 5 0 7 6 10 14 7 8 -3 20 1 26 9 20 23 30 16
20 -13 -8 -24 -8 -25 3 -9 26 39 49 67 53 63 3 -2 -13 -38 -35 -78 -40 -76
-77 -176 -68 -185 3 -3 13 19 22 48 30 90 102 223 130 242 15 10 26 14 24 9
-2 -5 -29 -58 -60 -118 -58 -113 -123 -280 -116 -299 2 -6 11 12 19 39 39 127
178 415 201 415 4 0 -24 -60 -63 -134 -39 -74 -82 -167 -96 -207 -33 -99 -66
-228 -62 -247 2 -9 20 46 40 121 30 109 56 175 125 317 48 98 91 179 95 179 4
1 6 -19 3 -44z m1151 -317 c15 -13 24 -17 20 -10 -6 11 2 13 39 10 34 -3 50
-10 58 -24 5 -10 23 -36 39 -56 l28 -36 -52 -12 c-62 -14 -150 -10 -155 7 -3
7 4 10 19 7 21 -5 20 -3 -4 11 -16 8 -28 18 -28 21 0 3 6 2 13 -2 6 -4 4 2 -7
14 -10 12 -16 28 -13 36 3 8 3 17 -1 20 -12 12 -10 36 3 36 7 0 25 -10 41 -22z
m-557 -98 c12 -47 25 -86 31 -88 5 -2 10 -28 10 -58 0 -31 4 -54 11 -54 6 0 8
17 4 48 -13 94 -27 152 -36 147 -11 -7 -12 5 -1 23 6 9 16 4 37 -18 24 -25 31
-44 41 -113 12 -81 12 -82 14 -27 2 73 17 112 21 55 8 -113 -1 -151 -76 -320
-29 -66 -56 -128 -59 -139 -6 -18 -7 -18 -34 0 -15 10 -53 32 -84 50 -112 63
-193 143 -169 167 6 6 11 20 11 31 1 16 5 13 20 -14 23 -43 25 -36 5 20 -21
60 3 47 26 -15 10 -26 23 -53 30 -59 6 -6 5 3 -4 19 -8 17 -18 41 -22 55 l-7
25 29 -27 c16 -16 32 -28 36 -28 3 0 3 22 0 49 -3 26 -1 56 4 66 9 14 12 10
17 -26 12 -81 25 -78 21 5 -3 44 -7 81 -9 84 -3 2 0 14 5 25 9 16 13 17 21 6
7 -10 8 -5 3 16 -4 16 -3 26 2 22 4 -5 15 -45 25 -90 9 -45 16 -68 17 -52 0
17 -6 59 -15 95 -15 66 -11 139 6 95 7 -17 22 -128 44 -305 2 -19 3 10 1 65
-2 55 -11 142 -20 193 -9 52 -15 96 -12 99 3 2 11 -31 18 -73 7 -43 14 -74 16
-67 2 6 -2 48 -10 93 -25 145 -1 160 32 20z m-1058 53 c-68 -89 -113 -155
-108 -159 3 -3 28 28 56 69 28 42 56 79 63 83 7 5 5 -5 -6 -20 -10 -16 -13
-25 -7 -22 16 11 13 -20 -4 -34 -8 -6 -17 -22 -21 -33 -3 -12 -13 -30 -22 -39
-8 -10 -12 -18 -8 -18 4 0 18 12 31 28 l24 27 1 -26 c0 -14 -9 -34 -19 -43
-11 -10 -19 -26 -18 -36 1 -16 3 -16 24 -3 21 14 23 14 23 -6 0 -25 -17 -29
-117 -33 l-72 -3 -6 71 c-7 75 0 134 16 134 6 0 8 -10 4 -22 -5 -19 -4 -20 4
-7 15 23 60 51 71 44 6 -4 6 -14 -2 -28 -10 -20 -10 -21 6 -8 9 8 22 24 28 35
10 20 10 20 -7 6 -16 -13 -18 -13 -13 0 2 8 11 15 19 15 8 0 26 13 41 28 35
35 46 35 19 0z m599 -58 c5 46 20 -47 32 -192 7 -83 15 -150 18 -148 6 4 -4
201 -15 265 l-7 45 32 -49 c17 -26 53 -72 81 -101 l49 -52 -24 -54 c-13 -30
-40 -81 -60 -114 -20 -33 -41 -77 -47 -97 l-10 -38 -57 36 c-112 71 -206 186
-187 230 6 16 9 14 17 -15 5 -19 17 -44 25 -55 15 -20 15 -20 8 -1 -17 45 -14
99 7 122 12 12 25 20 29 17 5 -3 9 3 10 13 1 10 7 -11 15 -46 14 -65 32 -103
21 -45 -16 85 -19 134 -8 134 6 0 11 -12 11 -26 0 -35 41 -207 47 -200 3 3 -4
45 -15 93 -26 112 -31 153 -22 178 5 14 9 1 15 -43 7 -66 23 -129 24 -101 1 9
-4 53 -10 98 -12 90 -2 231 12 161 4 -20 7 -27 9 -15z m654 -88 c4 4 12 0 17
-9 5 -10 16 -15 23 -12 8 3 17 1 20 -5 4 -6 13 -8 20 -5 7 3 21 -2 29 -11 9
-9 20 -15 24 -15 4 1 11 -7 15 -17 7 -15 8 -14 4 5 -2 12 0 22 5 22 28 0 38
-126 18 -219 -9 -45 -13 -50 -32 -47 -12 3 -40 8 -62 11 -44 7 -165 61 -165
74 0 20 16 19 39 -1 l26 -23 -26 30 c-23 27 -29 65 -10 65 4 0 26 -16 49 -36
55 -47 53 -33 -3 27 -38 41 -44 52 -35 68 5 11 8 26 6 33 -2 7 -7 33 -11 58
l-6 44 24 -22 c13 -12 27 -19 31 -15z"/>
<path d="M1336 2661 c-4 -5 -8 -29 -10 -53 -2 -24 -2 -34 1 -23 2 11 8 35 13
53 8 32 7 41 -4 23z"/>
<path d="M1433 2610 c0 -36 2 -50 4 -32 2 17 2 47 0 65 -2 17 -4 3 -4 -33z"/>
<path d="M1620 2553 c3 -41 0 -50 -10 -28 -8 20 -9 20 -9 -1 -1 -23 -34 -58
-44 -47 -4 3 -7 -4 -7 -16 0 -20 4 -19 49 19 46 39 49 44 39 71 -13 37 -20 37
-18 2z"/>
<path d="M1813 2290 c0 -36 2 -50 4 -32 2 17 2 47 0 65 -2 17 -4 3 -4 -33z"/>
<path d="M1652 2283 c-16 -73 -25 -143 -19 -143 7 0 40 181 34 187 -3 2 -10
-17 -15 -44z"/>
<path d="M1701 2203 c-8 -51 -18 -90 -22 -87 -11 6 -10 -14 0 -41 10 -23 45
156 39 196 -2 13 -10 -17 -17 -68z"/>
<path d="M1101 2380 c23 -28 44 -48 47 -46 6 7 -68 96 -80 96 -5 0 10 -23 33
-50z"/>
<path d="M941 2339 c-1 -18 30 -112 35 -107 2 2 -5 31 -16 63 -10 33 -19 53
-19 44z"/>
<path d="M1341 2280 c0 -14 6 -47 13 -75 18 -65 19 -38 2 40 -8 33 -14 49 -15
35z"/>
<path d="M1875 2410 c-38 -55 -28 -58 13 -4 18 24 29 44 24 44 -5 0 -22 -18
-37 -40z"/>
<path d="M2305 2365 c-38 -12 -63 -23 -54 -24 17 -1 139 38 139 45 0 7 -13 4
-85 -21z"/>
<path d="M2198 2227 c-59 -34 -129 -78 -155 -97 -26 -19 -52 -33 -56 -32 -5 1
-5 -2 -2 -8 4 -7 19 -2 40 14 36 28 51 33 39 15 -8 -13 20 1 51 25 16 13 17
15 3 10 -43 -15 -10 8 87 61 58 32 105 62 105 66 0 12 10 16 -112 -54z"/>
<path d="M1983 2131 c-26 -21 -64 -56 -83 -77 -21 -23 -24 -29 -8 -15 16 13
32 20 39 16 7 -5 10 -4 6 2 -6 10 32 50 87 91 16 12 24 22 18 22 -6 0 -32 -17
-59 -39z"/>
<path d="M780 2336 c0 -4 30 -40 66 -80 37 -39 89 -102 115 -140 27 -38 49
-66 49 -62 0 29 -228 309 -230 282z"/>
<path d="M916 2220 c57 -79 73 -96 48 -53 -10 18 -35 52 -57 75 -35 39 -35 38
9 -22z"/>
<path d="M801 2233 c12 -24 25 -41 27 -38 3 3 14 -2 24 -12 39 -35 15 5 -28
47 l-45 45 22 -42z"/>
<path d="M502 2105 c77 -45 111 -58 73 -29 -23 18 -131 74 -142 74 -4 0 27
-20 69 -45z"/>
<path d="M671 2024 c9 -8 31 -17 50 -19 34 -4 34 -4 9 10 -14 7 -28 11 -32 9
-3 -2 -9 0 -13 6 -3 5 -11 10 -18 10 -7 0 -5 -6 4 -16z"/>
<path d="M2428 1970 c-18 -16 -28 -30 -22 -30 5 0 23 14 39 30 37 39 25 39
-17 0z"/>
<path d="M2577 1960 c-8 -11 -16 -18 -19 -15 -3 3 -11 -1 -17 -9 -10 -11 -9
-14 1 -12 20 3 37 15 48 37 14 25 5 25 -13 -1z"/>
<path d="M1877 1814 c-21 -14 -35 -29 -32 -35 8 -12 6 -13 44 26 39 42 37 43
-12 9z"/>
<path d="M859 1930 c30 -17 56 -28 59 -26 4 5 -92 56 -105 56 -4 0 16 -14 46
-30z"/>
<path d="M1045 1820 c3 -14 8 -33 10 -44 5 -23 12 -30 18 -19 2 4 -4 26 -15
48 -11 22 -17 29 -13 15z"/>
<path d="M2540 1879 c0 -5 26 -9 58 -8 64 1 60 5 -10 12 -27 2 -48 1 -48 -4z"/>
<path d="M2360 1730 c-30 -10 -51 -18 -47 -19 15 -2 102 22 112 30 13 12 -1
10 -65 -11z"/>
<path d="M1817 1673 c-2 -21 -1 -45 4 -53 5 -10 9 4 9 38 0 61 -6 68 -13 15z"/>
<path d="M1830 1530 c14 -9 109 -15 99 -6 -2 2 -29 6 -59 9 -37 4 -50 3 -40
-3z"/>
<path d="M941 1688 c6 -13 19 -31 28 -42 9 -10 15 -21 14 -25 -2 -3 1 -6 6 -6
5 0 13 -3 17 -7 4 -5 14 -8 22 -8 12 0 12 3 2 15 -7 8 -19 15 -26 15 -8 0 -26
18 -40 40 -29 44 -42 53 -23 18z"/>
<path d="M1516 1422 c-7 -12 23 -54 34 -47 4 3 13 -2 21 -11 7 -8 22 -20 33
-26 12 -6 -1 13 -29 41 -54 56 -52 54 -59 43z"/>
<path d="M680 1621 c-16 -5 4 -7 60 -7 47 1 103 -2 125 -6 33 -6 36 -6 15 3
-32 14 -167 21 -200 10z"/>
<path d="M196 1179 c-15 -38 -30 -97 -23 -89 3 3 15 29 26 59 22 59 20 86 -3
30z"/>
<path d="M585 1149 c3 -4 -20 -13 -50 -20 -31 -7 -58 -16 -61 -21 -6 -10 22
-4 106 22 49 14 52 17 28 22 -15 3 -25 2 -23 -3z"/>
<path d="M2380 1621 c97 -23 96 -23 78 -12 -9 6 -38 13 -65 16 -41 4 -43 3
-13 -4z"/>
<path d="M1732 1361 c-10 -6 -5 -11 19 -20 17 -6 41 -11 53 -10 12 1 1 6 -23
11 -32 7 -40 12 -30 19 8 5 10 9 4 9 -5 0 -16 -4 -23 -9z"/>
<path d="M2390 801 c42 -13 107 -22 90 -12 -8 4 -37 11 -65 14 -31 4 -41 3
-25 -2z"/>
<path d="M1070 1272 c-35 -36 -35 -36 -5 -18 55 35 65 43 58 49 -10 11 -16 8
-53 -31z"/>
<path d="M1326 1281 c4 -15 2 -21 -4 -17 -11 7 -38 -71 -28 -81 2 -3 8 12 12
32 4 22 10 32 14 25 5 -8 9 -4 13 11 3 12 2 30 -4 38 -8 12 -8 10 -3 -8z"/>
<path d="M1887 1283 c-3 -5 26 -35 64 -68 68 -59 141 -137 189 -202 13 -18 28
-33 32 -33 15 0 -41 70 -126 159 -78 82 -80 90 -5 27 19 -17 7 -4 -27 29 -67
64 -120 100 -127 88z"/>
<path d="M1755 1262 c1 -9 7 -16 13 -15 5 1 32 -16 58 -39 l49 -42 -45 48
c-54 57 -80 74 -75 48z"/>
<path d="M1605 1250 c-7 -11 43 -88 71 -111 10 -8 5 3 -10 24 -16 20 -25 37
-22 37 4 0 0 14 -9 30 -17 33 -21 35 -30 20z"/>
<path d="M1812 1018 c15 -13 42 -32 60 -41 l33 -18 -27 23 c-15 13 -42 32 -60
41 l-33 18 27 -23z"/>
<path d="M1825 917 c3 -29 22 -58 34 -54 4 1 36 -29 71 -66 35 -37 73 -73 84
-79 12 -6 -13 25 -54 68 -42 44 -90 97 -107 119 -30 38 -31 39 -28 12z"/>
<path d="M2280 550 c13 -9 109 -15 99 -6 -2 2 -29 6 -59 10 -38 4 -50 3 -40
-4z"/>
<path d="M2729 1080 c24 -11 46 -18 48 -16 7 7 -54 36 -74 36 -10 0 2 -9 26
-20z"/>
<path d="M1197 973 c-26 -54 -47 -102 -46 -108 0 -5 11 13 25 40 13 28 24 43
24 35 1 -26 43 63 46 98 1 17 1 32 0 32 -1 0 -24 -44 -49 -97z"/>
<path d="M1332 696 c-7 -37 -11 -70 -8 -73 6 -7 28 104 24 125 -2 9 -9 -14
-16 -52z"/>
<path d="M1065 366 c-11 -7 -46 -30 -78 -51 -32 -21 -56 -39 -54 -41 6 -6 157
88 157 98 0 10 0 10 -25 -6z"/>
<path d="M2380 739 c17 -15 19 -19 7 -15 -11 4 -16 2 -12 -5 4 -5 12 -8 18 -6
7 3 27 -4 45 -15 48 -29 39 -15 -17 26 -52 38 -83 49 -41 15z"/>
<path d="M2040 558 c0 -4 18 -36 40 -70 37 -59 56 -73 25 -18 -17 30 -19 44
-4 34 8 -4 8 0 0 15 -14 25 -23 28 -15 4 4 -10 -5 -5 -20 12 -14 17 -25 27
-26 23z"/>
<path d="M2120 527 c0 -2 16 -32 35 -67 19 -36 35 -58 35 -50 0 15 -57 120
-65 120 -3 0 -5 -1 -5 -3z"/>
<path d="M758 1009 c-21 -11 -38 -22 -38 -24 0 -3 14 2 31 10 17 9 33 14 36
11 3 -2 -39 -27 -93 -55 -55 -27 -93 -50 -86 -50 15 -1 156 70 197 99 26 19
27 21 6 15 -16 -5 -21 -4 -17 4 9 14 8 14 -36 -10z"/>
<path d="M544 966 c-60 -30 -116 -61 -123 -69 -9 -12 229 103 248 120 18 14
-31 -6 -125 -51z"/>
<path d="M602 968 c-57 -27 -102 -52 -99 -54 4 -5 217 95 217 102 0 8 -17 1
-118 -48z"/>
<path d="M835 931 c-6 -6 -48 -33 -95 -60 -98 -59 -99 -67 -1 -16 68 36 134
84 116 85 -6 0 -15 -4 -20 -9z"/>
</g>
</svg>
