<svg width="400" height="300" viewBox="0 0 400 300" fill="none" xmlns="http://www.w3.org/2000/svg">
<g clip-path="url(#clip0_125_2)">
<mask id="mask0_125_2" style="mask-type:luminance" maskUnits="userSpaceOnUse" x="56" y="27" width="230" height="262">
<path d="M285.333 27H56V288.333H285.333V27Z" fill="white"/>
</mask>
<g mask="url(#mask0_125_2)">
<mask id="mask1_125_2" style="mask-type:luminance" maskUnits="userSpaceOnUse" x="57" y="35" width="229" height="178">
<path d="M57.3335 35H285.229V212.333H57.3335V35Z" fill="white"/>
</mask>
<g mask="url(#mask1_125_2)">
<path d="M262.678 58.2384C277.287 66.9364 284.595 77.4155 284.595 89.6759C284.595 99.3322 279.22 109.676 268.47 120.718C262.261 127.192 254.912 132.775 246.428 137.468C237.938 142.15 229.563 145.525 221.303 147.593C206.954 151.051 193.99 152.78 182.407 152.78C179.917 152.78 177.438 152.712 174.97 152.572C164.897 167.322 154.553 179.874 143.928 190.218C128.345 204.827 111.178 212.134 92.4279 212.134C74.4956 212.134 63.4591 207.238 59.3237 197.447C58.3654 195.103 57.8862 192.379 57.8862 189.28C57.8862 186.186 59.4696 182.843 62.6362 179.259C67.605 173.593 74.5737 170.759 83.5321 170.759C89.3237 170.759 95.3914 171.796 101.74 173.863C104.084 174.697 104.912 175.593 104.22 176.551C103.662 177.108 101.865 176.837 98.8237 175.738C95.7925 174.629 92.0373 174.072 87.5529 174.072C83.0789 174.072 79.1466 175.77 75.7612 179.155C72.3862 182.53 70.6987 186.15 70.6987 190.009C70.6987 191.525 70.9748 193.041 71.5321 194.551C73.7404 201.999 80.0164 205.718 90.3654 205.718C105.808 205.718 120.975 198.551 135.865 184.218C146.49 173.874 158.417 155.254 171.657 128.363C176.751 118.296 183.095 107.093 190.678 94.7593C198.261 82.4155 205.98 71.8218 213.845 62.9884C214.813 62.0301 216.058 60.7957 217.574 59.2801C220.475 55.9624 222.891 53.3374 224.824 51.4051C214.891 50.0301 204.266 49.3426 192.949 49.3426C181.641 49.3426 170.954 50.2749 160.886 52.1343C150.829 53.9989 142.074 56.2072 134.615 58.7593C127.167 61.3166 119.621 64.6291 111.97 68.6968C104.313 72.7541 97.8706 77.8843 92.6362 84.0926C85.73 91.9572 82.2821 100.166 82.2821 108.718C82.2821 113.957 84.1466 118.853 87.8862 123.405C91.8706 128.228 97.0008 130.634 103.282 130.634C109.558 130.634 115.626 128.228 121.49 123.405C127.35 118.572 131.522 112.645 134.011 105.613C134.147 104.645 134.454 103.988 134.928 103.655C135.412 103.311 135.865 103.343 136.282 103.759C136.699 104.166 136.907 104.853 136.907 105.822C136.766 114.78 133.282 121.853 126.449 127.03C119.626 132.197 112.079 134.78 103.803 134.78C94.4279 134.78 86.7716 132.025 80.8446 126.509C74.9123 120.983 71.9487 113.879 71.9487 105.197C71.9487 97.1968 74.0841 89.9989 78.3654 83.5926C82.6414 77.1759 87.7456 71.9676 93.6779 67.9676C99.605 63.9676 106.433 60.3791 114.157 57.1968C127.251 51.9624 141.001 48.2749 155.407 46.1343C169.824 43.9989 183.266 42.9259 195.74 42.9259C208.225 42.9259 219.782 44.0301 230.407 46.2384C235.365 42.3791 239.704 39.7593 243.428 38.3843C247.147 37.0093 249.251 36.3218 249.74 36.3218C250.225 36.3218 250.537 36.3947 250.678 36.5301C251.496 36.5301 251.662 36.9832 251.178 37.8843C250.704 38.7749 249.121 40.1134 246.428 41.9051C243.746 43.6968 241.162 45.8322 238.678 48.3009C247.496 50.6499 255.496 53.9624 262.678 58.2384ZM180.761 148.218C190.813 148.218 201.74 146.462 213.532 142.947C225.324 139.436 235.772 134.296 244.886 127.53C262.537 114.155 271.365 100.363 271.365 86.1551C271.365 70.0301 259.157 59.0718 234.74 53.2801C227.016 64.0301 217.016 80.3739 204.74 102.301C192.475 124.233 183.516 139.541 177.865 148.218C178.824 148.218 179.787 148.218 180.761 148.218Z" fill="black"/>
</g>
</g>
<mask id="mask2_125_2" style="mask-type:luminance" maskUnits="userSpaceOnUse" x="188" y="44" width="175" height="293">
<path d="M362.667 44.333H188V336.333H362.667V44.333Z" fill="white"/>
</mask>
<g mask="url(#mask2_125_2)">
<path d="M278.932 257.286C255.943 257.13 237.297 249.88 222.995 235.515C208.703 221.14 201.557 202.245 201.557 178.828C201.557 155.411 208.703 136.484 222.995 122.036C237.297 107.594 255.943 100.37 278.932 100.37C298.765 100.37 316.224 105.255 331.307 115.015L335.62 145.411H333.682C330.515 133.068 324.151 123.552 314.599 116.87C305.042 110.177 293.151 106.828 278.932 106.828C260.682 106.828 245.917 113.443 234.64 126.661C223.359 139.885 217.724 157.276 217.724 178.828C217.724 200.385 223.359 217.739 234.64 230.89C245.917 244.031 260.682 250.672 278.932 250.807C288.265 250.807 297.13 249.161 305.536 245.87C313.953 242.568 321.318 237.963 327.64 232.057V193.911C327.64 190.76 326.667 188.359 324.724 186.703C322.792 185.052 320.104 184.224 316.661 184.224H313.203V182.057H355.453V184.224H352.224C348.625 184.224 345.89 185.052 344.015 186.703C342.151 188.359 341.292 190.76 341.432 193.911V229.474C337.693 234.364 333.234 238.755 328.057 242.64C322.89 246.515 315.958 249.927 307.265 252.87C298.583 255.812 289.14 257.286 278.932 257.286Z" fill="black"/>
</g>
</g>
<defs>
<clipPath id="clip0_125_2">
<rect width="400" height="300" fill="white"/>
</clipPath>
</defs>
</svg>
